<svg xmlns="http://www.w3.org/2000/svg" xmlns:xlink="http://www.w3.org/1999/xlink" version="1.1" x="0px" y="0px" viewBox="0 0 139 173.75" enable-background="new 0 0 139 139" xml:space="preserve"><path d="M86.987,81.338c-0.109-7.362-4.787-13.623-11.32-16.094V37.313c0-3.4-2.767-6.167-6.167-6.167s-6.167,2.767-6.167,6.167  v27.932c-6.532,2.473-11.209,8.732-11.319,16.094l-7.888,26.513h50.748L86.987,81.338z M66.333,37.313  c0-1.746,1.421-3.167,3.167-3.167s3.167,1.421,3.167,3.167v27.09c-1.028-0.189-2.084-0.302-3.166-0.302  c-1.083,0-2.139,0.112-3.168,0.302V37.313z M69.501,67.101c7.488,0,13.669,5.707,14.422,13H55.079  C55.832,72.808,62.012,67.101,69.501,67.101z M76.919,91.403l3.129,13.447h-8.881V93.063c0-0.828-0.672-1.5-1.5-1.5  c-0.829,0-1.5,0.672-1.5,1.5v11.787h-8.881l3.129-13.447c0.188-0.807-0.314-1.613-1.121-1.801c-0.804-0.184-1.613,0.313-1.801,1.121  l-3.287,14.127h-8.058l6.471-21.75h29.764l6.47,21.75h-7.725l-3.287-14.127c-0.188-0.806-0.994-1.308-1.801-1.121  C77.233,89.79,76.731,90.597,76.919,91.403z"/><text x="0" y="154" fill="#000000" font-size="5px" font-weight="bold" font-family="'Helvetica Neue', Helvetica, Arial-Unicode, Arial, Sans-serif">Created by Chanut is Industries</text><text x="0" y="159" fill="#000000" font-size="5px" font-weight="bold" font-family="'Helvetica Neue', Helvetica, Arial-Unicode, Arial, Sans-serif">from the Noun Project</text></svg>